<svg version="1.1" id="Layer_1" xmlns="http://www.w3.org/2000/svg" xmlns:xlink="http://www.w3.org/1999/xlink" x="0px" y="0px" viewBox="0 0 539.5 78.4" style="enable-background:new 0 0 539.5 78.4;" xml:space="preserve">
<style type="text/css">
	.st0{fill:#000000;}
</style>
    <g>
	<path class="st0" d="M539.5,10.1c-3.8,0.8-6.8,3.2-9.5,5.8c-6.3,6.1-10.8,13.4-15.8,20.5c-3.5,5.1-5.2,10.3-4.6,16.5
		c0.4,4.2,0,8.5,0.2,12.7c0.3,5.9,1.9,7.5,7.6,8.6c0.5,0.1,0.9,0.2,1.3,0.8c-12.5,0-25.1,0-37.6,0c0-0.1-0.1-0.3-0.1-0.4
		c0.9-0.2,1.8-0.4,2.8-0.6c3.6-0.6,5.6-2.2,5.9-5.9c0.4-6.4,0.4-12.9,0.4-19.4c0-0.5-0.3-1.1-0.6-1.5c-5.6-9.2-11.1-18.5-16.7-27.7
		c-1.5-2.4-3.2-4.7-5.3-6.5c-1.8-1.6-4.3-2.4-6.7-3.7c12.8,0,25.5,0,38.2,0c0.1,0.1,0.1,0.2,0.2,0.4c-0.6,0.2-1.1,0.5-1.7,0.7
		c-2.9,1.1-4.1,3-3.4,6c0.5,1.8,1.2,3.7,2.1,5.3c4,6.8,8.1,13.6,12.2,20.4c0.2,0.3,0.4,0.5,0.7,0.8c4-6.2,8-12.3,9.4-19.6
		c1.3-6.5,0.7-9.1-3.8-14.1c8.5,0,16.7,0,24.9,0C539.5,9.4,539.5,9.7,539.5,10.1z"></path>
        <path class="st0" d="M319.3,74.5c0.8-0.2,1.6-0.3,2.4-0.5c4.3-0.7,6.3-2.9,6.6-7.2c0.1-1.3,0.1-2.6,0.1-3.8c0-14,0-28,0-42
		c0-1,0-1.9-0.1-2.9c-0.2-5.2-2.3-7.4-7.3-8.1c-0.6-0.1-1.1-0.2-1.6-0.8c0.5-0.1,1-0.2,1.5-0.2c12.2,0,24.5-0.1,36.7,0.1
		c8.2,0.2,16,2.4,22.5,7.8c10.6,8.8,13.8,20.4,10.8,33.5c-3,13.1-11.9,20.8-24.8,23.9c-2.5,0.6-5.1,0.9-7.6,0.9
		c-12.5,0.1-25,0.1-37.4,0c-0.5,0-1.1-0.1-1.6-0.1C319.3,75,319.3,74.7,319.3,74.5z M348.1,9.6c-0.1,1.4-0.2,1.9-0.2,2.3
		c0,17.4,0,34.7,0,52.1c0,1.8,0.2,3.5,0.4,5.3c0.3,2.3,1.6,3.7,3.8,4.5c4.6,1.5,10.6-0.1,13.4-4.1c1.6-2.3,2.8-4.9,3.5-7.5
		c2.4-9.3,2.3-18.8,1.7-28.4c-0.3-5.5-1.2-10.8-3.6-15.8c-1.4-2.9-3.5-5.4-6.6-6.2C356.5,10.7,352.4,10.3,348.1,9.6z"></path>
        <path class="st0" d="M148.1,19.5c0.5,13.7,0.9,27.4,1.6,41.1c0.1,2.6,1.6,5.3,2.9,7.8c1.6,3.2,4.5,4.8,8,5.5
		c0.9,0.2,1.7,0.4,2.6,0.6c0,0.2-0.1,0.4-0.1,0.6c-10.4,0-20.7,0-31.1,0c0-0.1-0.1-0.3-0.1-0.4c0.5-0.2,1-0.5,1.5-0.7
		c7-1.5,11-5.9,12.3-12.7c0.8-4.1,1.3-8.2,1.4-12.4c0.2-7.9-0.1-15.8,0.1-23.7c0.3-10.1-5.7-14.5-14.1-15.2c-0.4,0-0.7-0.1-1.2-0.6
		c0.4-0.1,0.9-0.3,1.3-0.3c9.8,0,19.7-0.1,29.5,0.1c1,0,2.2,0.8,2.9,1.6c10.6,12,21.2,24.1,31.8,36.2c0.6,0.7,1.2,1.3,1.7,1.9
		c0.2-0.2,0.4-0.3,0.4-0.4c-0.2-7.8-0.2-15.7-0.7-23.5c-0.1-2.6-1.2-5.1-2.2-7.5c-1.7-4-4.5-6.8-9-7.4c-0.4-0.1-0.7-0.2-1.1-0.4
		c0,0,0-0.1-0.1-0.4c9.7,0,19.3,0,28.9,0c0,0.1,0.1,0.2,0.1,0.4c-0.5,0.1-0.9,0.4-1.4,0.4c-4.4,0.6-7.4,3-9.4,7
		c-3,6-3.7,12.5-3.8,19.1c-0.1,13-0.1,26.1-0.1,39.1c0,0.8,0,1.7,0,3.2c-17.6-20.1-34.8-39.6-51.9-59.2
		C148.8,19.4,148.5,19.5,148.1,19.5z"></path>
        <path class="st0" d="M69.1,78.4C51.5,58.3,34.3,38.8,16.9,19c-0.1,0.9-0.3,1.4-0.3,1.9c0,10.4-0.1,20.8,0.1,31.2
		c0.1,3.9,0.7,7.8,1.7,11.6c1.5,5.8,5,9.8,11.3,10.5c0.4,0,0.8,0.2,1.2,0.3c0.1,0,0.2,0.2,0.5,0.6c-10.5,0-20.9,0-31.3,0
		c-0.1-0.1-0.1-0.2-0.2-0.4c0.6-0.2,1.1-0.6,1.7-0.7c6.8-1.4,10.8-5.7,12.2-12.4c0.8-3.9,1.3-7.9,1.4-11.9
		c0.2-8.2-0.1-16.5,0.1-24.7c0.3-10.2-6-14.4-14-15C1,10,0.6,9.8,0.1,9.2c0.8-0.1,1.6-0.1,2.4-0.1c9.2,0,18.4,0,27.6,0
		c1.7,0,2.8,0.5,3.9,1.8C44.5,22.9,55.1,35,65.7,47.1c0.6,0.6,1.1,1.2,2.1,2.3c0-6.4,0.2-12.1-0.1-17.8c-0.2-3.9-0.8-7.8-1.8-11.5
		c-1.5-5.3-4.6-9.3-10.6-10c-0.2,0-0.4-0.2-1-0.7c10.1,0,19.8,0,29.4,0c0,0.1,0.1,0.2,0.1,0.3c-0.5,0.1-1,0.4-1.5,0.4
		c-4.3,0.6-7.2,3-9.2,6.8c-3.1,6.1-3.8,12.7-3.9,19.3c-0.1,13-0.1,26.1-0.1,39.1C69.1,76.1,69.1,76.9,69.1,78.4z"></path>
        <path class="st0" d="M237.8,18.3c5.5-4.9,10.9-9.7,16.4-14.5c0.2,0.4,0.5,1.2,0.8,1.9c7.8,18.6,15.5,37.3,23.3,55.9
		c0.4,1,0.9,1.9,1.4,2.8c2.6,4.9,5.1,10.1,12.1,9.9c-0.1,0.2-0.2,0.4-0.3,0.6c-13.2,0-26.4,0-39.7,0c0-0.1,0-0.2-0.1-0.4
		c0.6-0.2,1.3-0.4,1.9-0.5c4.3-1,5.9-3.1,4.8-7.5c-1.1-4.2-2.7-8.3-4.3-12.4c-1.7-4.4-1.8-4.3-6.6-4.3c-4.5,0-9,0.1-13.4,0
		c-1.5,0-2.1,0.5-2.6,1.8c-1.4,4.2-2.2,8.5-1.6,13c0.6,5.1,3.2,8.1,8.1,9.5c0.5,0.1,1,0.4,1.4,0.9c-10.1,0-20.2,0-30.7,0
		c0.4-0.4,0.6-0.7,0.8-0.7c6.1-1.4,10.5-5.2,13.7-10.2c3.1-5,5.8-10.3,8.1-15.7c3.1-7.3,5.6-15,8.6-22.3c1.1-2.7,0.8-4.7-1.1-6.6
		C238.3,19,237.9,18.5,237.8,18.3z M252,48.7c-3.4-8.3-6.7-16.2-10.3-24.7c-3.2,8.6-6.1,16.5-9.2,24.7
		C239.1,48.7,245.3,48.7,252,48.7z"></path>
        <path class="st0" d="M472.1,75.1c-13.2,0-26.3,0-39.5,0c0-0.2-0.1-0.3-0.1-0.5c0.8-0.2,1.7-0.4,2.5-0.6c3.4-0.8,5.2-2.9,4.3-6.3
		c-1.6-5.7-3.8-11.3-5.9-16.9c-0.2-0.4-1.1-0.9-1.7-0.9c-5.8-0.1-11.5-0.1-17.3,0c-0.6,0-1.6,0.5-1.8,1c-1.7,4.5-2.7,9-2,13.8
		c0.8,5,3.3,8.4,8.5,9.5c0.3,0.1,0.6,0.2,0.9,0.3c0.1,0,0.1,0.1,0.4,0.5c-10.3,0-20.4,0-30.5,0c-0.2-0.2-0.4-0.3-0.5-0.5
		c0.3-0.1,0.6-0.1,0.9-0.2c6.6-1.5,11.3-5.9,14.5-11.4c3.4-5.9,6.1-12.2,8.8-18.5c2.6-6,4.5-12.3,7-18.3c1.2-2.7,0.7-4.7-1.2-6.6
		c-0.4-0.5-0.8-1-0.9-1.1c5.5-4.8,10.9-9.6,16.4-14.5c0.2,0.4,0.5,1.3,0.9,2.1c7.5,18.1,15,36.1,22.5,54.2c0.6,1.3,1.2,2.6,1.9,3.9
		c2.6,5.1,5.1,10.4,12.2,10.5C472.3,74.7,472.2,74.9,472.1,75.1z M432.8,48.7c-3.5-8.3-6.8-16.3-10.3-24.7
		c-3.1,8.5-6.1,16.5-9.2,24.7C420,48.7,426.1,48.7,432.8,48.7z"></path>
        <path class="st0" d="M91.7,32.3c9-2.6,17.6-5.1,26.4-7.6c0,0.8,0,1.7,0,2.5c0,12.2,0,24.3,0,36.5c0,1,0,2.1,0.1,3.1
		c0.4,5.6,0.9,6.2,6.5,7.6c0.2,0,0.3,0.2,0.9,0.7c-10.9,0-21.5,0-32,0c0-0.1-0.1-0.2-0.1-0.4c0.5-0.1,1-0.3,1.5-0.4
		c4-0.7,5.2-1.9,5.4-6c0.2-4.6,0.2-9.3,0.2-13.9c0-4.2,0-8.5-0.2-12.7c-0.2-5.3-2.2-7.5-7.5-8.6C92.6,32.9,92.4,32.7,91.7,32.3z"></path>
        <path class="st0" d="M118.6,10.6c0,5.8-4.8,10.5-10.6,10.5c-5.7-0.1-10.6-5-10.5-10.6C97.6,4.6,102.3,0,108.2,0
		C114,0,118.6,4.6,118.6,10.6z"></path>
</g>
</svg>