<svg xmlns="http://www.w3.org/2000/svg" width="355.2" height="45.3" viewBox="0 0 355.2 45.3"><path fill="#4e4e4f" d="M310 36.8a1.1 1.1 0 1 1-1.1 1 1 1 0 0 1 1.1-1M326.1 26v13c0 3.9-2.5 6.3-6.1 6.3a8 8 0 0 1-5.8-2.5l1-1a6 6 0 0 0 4.8 2.1c3.2 0 4.7-2 4.7-4.9v-2.4A5 5 0 0 1 320 39a6 6 0 0 1-6.2-6.6 6 6 0 0 1 6.2-6.6 5 5 0 0 1 4.7 2.6v-2.3zm-1.4 4a5 5 0 0 0-4.6-3c-2.8 0-4.7 2.4-4.7 5.3s2 5.2 4.7 5.2a5 5 0 0 0 4.6-3zm17.2 2.3a6.4 6.4 0 1 1-12.8 0 6.4 6.4 0 1 1 12.8 0m-1.5 0c0-2.9-1.8-5.2-5-5.2s-4.8 2.3-4.8 5.2 1.7 5.2 4.9 5.2 4.9-2.4 4.9-5.2m3.8-6.3 4.7 10.1 4.8-10h1.5l-6.3 13-6.3-13zM0 2.2h9.1c7.8 0 12.3 4.5 12.3 10.7 0 8.2-7.1 10.3-9.8 10.6L22.5 40H19L8.4 23.6H2.8v16.5H0zm9.3 18.7c5.7 0 9.2-3 9.2-8s-3.6-8-9.2-8H2.8v16zM32 19.4h16.8V22H32v15.5h18.5V40H29V2.2h21v2.6H31.8zm54.7 13.1 2 2a18 18 0 0 1-14.1 6.2c-11 0-18.7-8.6-18.7-19.6S63.6 1.6 74.5 1.6A18 18 0 0 1 88 7.3l-2 1.9a15 15 0 0 0-11.5-4.9c-9.4 0-15.8 7.5-15.8 16.8S65.1 38 74.5 38a16 16 0 0 0 12-5.5m8-30.3h9.1c7.8 0 12.3 4.5 12.3 10.7 0 8.2-7.1 10.3-9.8 10.6L117 40h-3.4L103 23.6h-5.6v16.5h-2.8zm9.3 18.7c5.7 0 9.2-3 9.2-8s-3.6-8-9.2-8h-6.5v16zm22.5-1.5h17V22h-17v15.5H145V40h-21.3V2.2h21v2.6h-18.2zm67-14.6h-11.5V2.2h25.7v2.6h-11.4v35.3h-2.8z"/><path fill="#64873a" d="M152.7 40h-3l19-38.2 19 38.3h-3l-16-32.3zm70.7-20.3 1.6-1.2-5.5-7.2V5.1l4 5L225 9l-6.9-9-6.9 9 1.6 1.2 3.9-5v6.3l-5.5 7.1 1.6 1.2 3.9-5v6.4l-5.5 7 1.6 1.3 3.9-5V40h2.8V24.4l4 5 1.5-1.2-5.5-7.1v-6.4z"/><path fill="#4e4e4f" d="m277.5 2.2 23.3 33v-33h2.8v37.9h-2.8L277.5 7v33h-2.8V2.3z"/><path fill="#64873a" d="m249.7 17-.9-.1a4.3 4.3 0 0 0-4.1 5.2l-4.5 7.6 7.6-4.4a4.3 4.3 0 0 0 5.2-5l4.4-7.7zm.3 5.4a1.7 1.7 0 1 1 0-2.5 1.7 1.7 0 0 1 0 2.5"/><path fill="#4e4e4f" d="M246.3 4.5V1.7c-8.7 1.2-15 8-16 17h2.9c1-7.4 5.9-13.1 13.1-14.2m0 36v-2.7a16 16 0 0 1-13.1-14.2h-3c1 9 7.4 15.8 16.1 17m5-2.7v2.7c8.7-1 15-8 16-16.9h-2.9c-.9 7.3-5.8 13-13 14.2m0-36v2.7a15.5 15.5 0 0 1 13.1 14.1h3c-1-8.8-7.4-15.7-16-16.9"/></svg>